/* XPM */
static char * amd1_xpm[] = {
"24 24 22 1",
" 	c None",
".	c #00110F",
"+	c #000000",
"@	c #000808",
"#	c #000C0B",
"$	c #006F65",
"%	c #009688",
"&	c #007066",
"*	c #001110",
"=	c #007368",
"-	c #F8F6F5",
";	c #FBFAFA",
">	c #FFFFFF",
",	c #F6F2F1",
"'	c #E9E1DF",
")	c #EEE9E7",
"!	c #F7F4F3",
"~	c #F0EBEA",
"{	c #F1EEEB",
"]	c #F7F5F4",
"^	c #F2EEEC",
"/	c #FCFCFB",
"     .++++++++++++@     ",
"      #$%%%%%%%%%%+     ",
"       #$%%%%%%%%%+     ",
"        @++++++@%%+     ",
"       .       +%%+     ",
"      #+       +%%+     ",
"     #$+       +%%+     ",
"    @&%+       +%%+     ",
"    +%%+       +%%+     ",
"    +%%+       +%%+     ",
"    +%%+       @&%+     ",
"    +%%#++++++* #&+     ",
"    +%%%%%%%=#   #+     ",
"    +%%%%%%=#     *     ",
"    #++++++@            ",
"                        ",
"                        ",
"    -    -     - ;>>,'  ",
"   );)   >-   !> >   -' ",
"   ; ;   >~{ {~> >    , ",
"  )) ))  > ]^] > >    / ",
"  ;   ;  >  -  > >    , ",
" )>>>>>) >     > >   -  ",
" !     ] -     - ;>>,   "};
