/* XPM */
static char *haskell_24_white[] = {
/* columns rows colors chars-per-pixel */
"24 24 2 1 ",
"  c white",
". c None",
/* pixels */
"........................",
"........................",
"........................",
"........................",
".    .     .............",
".     .    .............",
"..    ..    ............",
"...    .     ...........",
"...     .    ..         ",
"....    ..    .         ",
".....    .     .        ",
".....     .    .........",
".....     .     ........",
".....    .       .      ",
"....    ..       ..     ",
"...     .         ..    ",
"...    .     .     .....",
"..    ..    ...    .....",
".     .    .....    ....",
".    .     .....     ...",
"........................",
"........................",
"........................",
"........................"
};
