/* XPM */
static char *haskell_24[] = {
/* columns rows colors chars-per-pixel */
"24 24 15 1 ",
"  c #473762",
". c #473663",
"X c #473763",
"o c #463764",
"O c #483763",
"+ c #624F88",
"@ c #634F88",
"# c #634F89",
"$ c #644E88",
"% c #644F88",
"& c #635087",
"* c #635088",
"= c #A14D8D",
"- c #A24D8D",
"; c None",
/* pixels */
";;;;;;;;;;;;;;;;;;;;;;;;",
";;;;;;;;;;;;;;;;;;;;;;;;",
";;;;;;;;;;;;;;;;;;;;;;;;",
";;;;;;;;;;;;;;;;;;;;;;;;",
";XXXX;@@@@&;;;;;;;;;;;;;",
";XXXXO;@@@@;;;;;;;;;;;;;",
";;XXXX;;@@@@;;;;;;;;;;;;",
";;;XXXX;@@@@&;;;;;;;;;;;",
";;;XXXXX;@@@@;;=========",
";;;;XXXX;;@@@@;=========",
";;;;;XXXX;@@@@@;========",
";;;;;XXXXX;@@@@;;;;;;;;;",
";;;;;XXXXO;@@@@@;;;;;;;;",
";;;;;XXXX;*@@@@@@;======",
";;;;XXXX;;@@@@@@@;;=====",
";;;XXXXO;@@@@@@@@@;;====",
";;;XXXX;*@@@%;@@@@@;;;;;",
";;XXXX;;@@@@;;;@@@@;;;;;",
";XXXXo;@@@@;;;;;@@@@;;;;",
";XXXX;*@@@%;;;;;%@@@@;;;",
";;;;;;;;;;;;;;;;;;;;;;;;",
";;;;;;;;;;;;;;;;;;;;;;;;",
";;;;;;;;;;;;;;;;;;;;;;;;",
";;;;;;;;;;;;;;;;;;;;;;;;"
};
