/* XPM */
static char *ubuntu[] = {
/* columns rows colors chars-per-pixel */
"24 24 130 2 ",
"   c black",
".  c #030100",
"X  c #050201",
"o  c #060201",
"O  c #080301",
"+  c #0A0301",
"@  c #0B0401",
"#  c #0B0402",
"$  c #0C0402",
"%  c #0D0402",
"&  c #0E0502",
"*  c #100502",
"=  c #110602",
"-  c #120602",
";  c #130703",
":  c #140703",
">  c #150703",
",  c #160703",
"<  c #170803",
"1  c #180803",
"2  c #190803",
"3  c #190903",
"4  c #1A0904",
"5  c #1B0904",
"6  c #1C0A04",
"7  c #1D0A04",
"8  c #1F0A04",
"9  c #1F0B04",
"0  c #230B05",
"q  c #230C05",
"w  c #240C05",
"e  c #250C05",
"r  c #250D05",
"t  c #260D05",
"y  c #270D05",
"u  c #280E05",
"i  c #290E05",
"p  c #2A0E06",
"a  c #2B0F06",
"s  c #2D0F06",
"d  c #2F1006",
"f  c #311107",
"g  c #321106",
"h  c #331107",
"j  c #351207",
"k  c #381307",
"l  c #361208",
"z  c #391308",
"x  c #391408",
"c  c #3A1408",
"v  c #3B1408",
"b  c #3F1509",
"n  c #411609",
"m  c #411709",
"M  c #431709",
"N  c #441709",
"B  c #451809",
"V  c #471809",
"C  c #49190A",
"Z  c #4A190A",
"A  c #4E1B0A",
"S  c #4F1B0B",
"D  c #501C0A",
"F  c #531D0B",
"G  c #551D0B",
"H  c #571D0B",
"J  c #561E0B",
"K  c #571E0B",
"L  c #551C0C",
"P  c #551D0C",
"I  c #561E0C",
"U  c #571E0C",
"Y  c #5B1F0C",
"T  c #5C1E0C",
"R  c #5C1F0C",
"E  c #5D1F0C",
"W  c #5B200C",
"Q  c #5D200D",
"!  c #5F200C",
"~  c #60210D",
"^  c #61210D",
"/  c #62200D",
"(  c #63210D",
")  c #62220D",
"_  c #63220D",
"`  c #60210E",
"'  c #65220D",
"]  c #64220E",
"[  c #67220E",
"{  c #66230E",
"}  c #68240F",
"|  c #69240F",
" . c #71270F",
".. c #72270F",
"X. c #822C11",
"o. c #832D11",
"O. c #842D12",
"+. c #933214",
"@. c #9E3615",
"#. c #9F3615",
"$. c #A83916",
"%. c #AA3A17",
"&. c #AB3A17",
"*. c #B33D18",
"=. c #B43D18",
"-. c #BB4019",
";. c #BD4019",
":. c #C5431A",
">. c #C6441A",
",. c #C8441B",
"<. c #CB451B",
"1. c #CC461B",
"2. c #D4481C",
"3. c #D5491C",
"4. c #DD4B1D",
"5. c #DF4C1E",
"6. c #E04C1E",
"7. c #E24D1E",
"8. c #E34D1E",
"9. c #E64E1F",
"0. c #E84F1F",
"q. c #EF5220",
"w. c #F35320",
"e. c #F45321",
"r. c #F75421",
"t. c #FA5521",
"y. c #FB5621",
"u. c #FE5722",
"i. c #FF5722",
"p. c None",
/* pixels */
"p.p.p.p.p.p.p.p.p.p.p.p.p.p.p.p.p.[ 1 < G p.p.p.",
"p.p.p.p.p.p.p.p.p.p.p.p.p.p.p.p.p.6 3.8.s p.p.p.",
"p.p.p.p.p.p.p.p.p.p.p.C 0 * * G ~ ~ i.i.O.D p.p.",
"p.p.p.p.p.p.p.p.p.p.m C 3.q.=.f p.4 2.8.s p.p.p.",
"p.p.p.p.p.p.p.U U p.p.* 9.i.r.7 p.[ 4 > T p.p.p.",
"p.p.p.p.p.p.G s < p.p.D ~ i.i.>.* E p.p.~ U p.p.",
"p.p.p.p.p.p.6 8.+.l p.p.1 @ O f [ C * & B a ~ p.",
"p.p.p.p.p.w &.i.y.a | p.p.p.p.p.m w 4.i.i.,., p.",
"p.p.p.p.p.a i.i.y.z Q p.p.p.p.p.p.Q w w.i.i.A ~ ",
"p.p.W p.p.4 -.i.@.f p.p.p.p.p.p.p.p.B O.i.i.$.x ",
"~ q ..a U Q z i.m | p.p.p.p.p.p.p.p.p.o . . . q ",
"q <.i.0.& p.. y.1 p.p.p.p.p.p.p.p.p.p.p.p.p.p.p.",
"q <.i.9.& p.o y.1 p.p.p.p.p.p.p.p.p.p.p.p.p.p.p.",
"~ 0 ..a K } v i.B | p.p.p.p.p.p.p.p.p.o . . . w ",
"p.p.W p.p.* =.i.$.s p.p.p.p.p.p.p.p.m O.i.i.&.j ",
"p.p.p.p.p.a i.i.i.j Q p.p.p.p.p.p.E w w.i.i.A ~ ",
"p.p.p.p.p.w &.i.y.a | p.p.p.p.p.m w 5.i.i.:.> p.",
"p.p.p.p.p.p.4 8.+.l p.p.> & O j [ C & & B a [ p.",
"p.p.p.p.p.p.U s > p.p.D ~ i.i.:.* Q p.p.T U p.p.",
"p.p.p.p.p.p.p.U U p.p.; 9.i.r.6 p.~ 1 > G p.p.p.",
"p.p.p.p.p.p.p.p.p.p.m C 2.q.*.j p.6 2.8.s p.p.p.",
"p.p.p.p.p.p.p.p.p.p.p.B 0 @ o U ~ ~ i.i.X.D p.p.",
"p.p.p.p.p.p.p.p.p.p.p.p.p.p.p.p.p.6 2.5.s p.p.p.",
"p.p.p.p.p.p.p.p.p.p.p.p.p.p.p.p.p.[ 4 > T p.p.p."
};
